<?xml version="1.0" encoding="UTF-8"?>
<svg id="Layer_2" data-name="Layer 2" xmlns="http://www.w3.org/2000/svg" viewBox="0 0 624.83 606.06">
  <defs>
    <style>
      .cls-1 {
        stroke-width: 0px;
      }
      path {
        
        fill: #000000;
      }
      @media ( prefers-color-scheme: dark ) {
        path {
          fill: #FFFFFF;
        }
      }
    </style>
  </defs>
  <g id="Layer_1-2" data-name="Layer 1">
    <path class="cls-1" d="m522.42,144.28s-132.02-37.5-199.53,92.78c0,0,86.83,8.58,174.31-32.64,0,0-10.64-55.13,25.22-60.15Zm-383.26,73.31c-13.19-6.51-25.66-13.26-37.31-20.03C43.97,163.94,6.24,129.92,0,123.06c26.33,47.41,58.8,84.43,93.8,113.32,12.85,10.61,26.04,20.13,39.39,28.65,128.13,81.85,271.17,73.17,271.17,73.17-4.09,54.91-38.36,110.16-77.19,156.09-10.69,12.64-21.72,24.58-32.56,35.61-45.14,45.93-86.99,76.15-86.99,76.15,52.1-11.59,96.47-36.31,134.02-67.85,15.17-12.74,29.22-26.6,42.21-41.16,101.5-113.68,121.62-264.35,121.73-264.79-142.51,75.48-266.73,34.53-366.43-14.67Zm-6.63,86.21c-15.77-9.61-30.21-19.4-43.06-28.74-40.76-29.64-65.46-54.72-65.46-54.72,21.22,34.66,44.37,62.99,67.83,86.14,17.74,17.51,35.65,32.06,53.03,44.13,74.41,51.69,139.17,58.18,139.17,58.18-4.54,28.03-10.83,51.14-17.34,69.71-5.64,16.09-11.45,28.76-16.44,38.23-7.81,14.82-13.62,21.81-13.62,21.81,7.96-5.64,15.47-11.7,22.55-18.06,11.6-10.41,22.03-21.63,31.36-33.06,45.74-56.06,65.02-117.55,65.02-117.55-83.62,4.42-162.95-29.45-223.04-66.06Zm43.79,103.39c-21.64-11.16-46.62-26.83-72.07-48.56,21.22,61.11,63.85,112.2,118.91,144.29,5-11.97,10.78-26.51,15.07-39.41-23.95-14.83-44.94-33.96-61.91-56.32Zm213.47,129.18c14.03-14.58,28.04-31.26,41.61-50.34,89.54-31.32,153.77-116.54,153.77-216.77,0-126.81-102.8-229.6-229.6-229.6-97.92,0-181.51,61.31-214.52,147.62-11.5-5.87-23.16-12.35-34.95-19.49C146.16,69.38,242.75,0,355.56,0c148.71,0,269.27,120.55,269.27,269.27,0,137.12-102.49,250.29-235.04,267.11Z"/>
  </g>
</svg>