<svg id="visual" viewBox="0 0 900 600" width="900" height="600" xmlns="http://www.w3.org/2000/svg" xmlns:xlink="http://www.w3.org/1999/xlink" version="1.1"><rect x="0" y="0" width="900" height="600" fill="#FAf0e6"></rect><path d="M0 18L30 33C60 48 120 78 180 93.8C240 109.7 300 111.3 360 109C420 106.7 480 100.3 540 89.7C600 79 660 64 720 52C780 40 840 31 870 26.5L900 22L900 601L870 601C840 601 780 601 720 601C660 601 600 601 540 601C480 601 420 601 360 601C300 601 240 601 180 601C120 601 60 601 30 601L0 601Z" fill="#faf0e6"></path><path d="M0 158L30 151.7C60 145.3 120 132.7 180 134.5C240 136.3 300 152.7 360 159.7C420 166.7 480 164.3 540 157C600 149.7 660 137.3 720 124.5C780 111.7 840 98.3 870 91.7L900 85L900 601L870 601C840 601 780 601 720 601C660 601 600 601 540 601C480 601 420 601 360 601C300 601 240 601 180 601C120 601 60 601 30 601L0 601Z" fill="#e6d9d1"></path><path d="M0 172L30 170.8C60 169.7 120 167.3 180 173.7C240 180 300 195 360 185.8C420 176.7 480 143.3 540 142.7C600 142 660 174 720 173.3C780 172.7 840 139.3 870 122.7L900 106L900 601L870 601C840 601 780 601 720 601C660 601 600 601 540 601C480 601 420 601 360 601C300 601 240 601 180 601C120 601 60 601 30 601L0 601Z" fill="#d3c3be"></path><path d="M0 236L30 223.7C60 211.3 120 186.7 180 176.8C240 167 300 172 360 180.3C420 188.7 480 200.3 540 197C600 193.7 660 175.3 720 180.2C780 185 840 213 870 227L900 241L900 601L870 601C840 601 780 601 720 601C660 601 600 601 540 601C480 601 420 601 360 601C300 601 240 601 180 601C120 601 60 601 30 601L0 601Z" fill="#beaeab"></path><path d="M0 236L30 237.8C60 239.7 120 243.3 180 245.5C240 247.7 300 248.3 360 243.3C420 238.3 480 227.7 540 222.5C600 217.3 660 217.7 720 220.7C780 223.7 840 229.3 870 232.2L900 235L900 601L870 601C840 601 780 601 720 601C660 601 600 601 540 601C480 601 420 601 360 601C300 601 240 601 180 601C120 601 60 601 30 601L0 601Z" fill="#aa9999"></path><path d="M0 327L30 323.2C60 319.3 120 311.7 180 313.2C240 314.7 300 325.3 360 317.3C420 309.3 480 282.7 540 270.7C600 258.7 660 261.3 720 262C780 262.7 840 261.3 870 260.7L900 260L900 601L870 601C840 601 780 601 720 601C660 601 600 601 540 601C480 601 420 601 360 601C300 601 240 601 180 601C120 601 60 601 30 601L0 601Z" fill="#958587"></path><path d="M0 346L30 343.7C60 341.3 120 336.7 180 341.8C240 347 300 362 360 364.8C420 367.7 480 358.3 540 357.3C600 356.3 660 363.7 720 358.8C780 354 840 337 870 328.5L900 320L900 601L870 601C840 601 780 601 720 601C660 601 600 601 540 601C480 601 420 601 360 601C300 601 240 601 180 601C120 601 60 601 30 601L0 601Z" fill="#817177"></path><path d="M0 387L30 389.7C60 392.3 120 397.7 180 402C240 406.3 300 409.7 360 401C420 392.3 480 371.7 540 371.3C600 371 660 391 720 398.2C780 405.3 840 399.7 870 396.8L900 394L900 601L870 601C840 601 780 601 720 601C660 601 600 601 540 601C480 601 420 601 360 601C300 601 240 601 180 601C120 601 60 601 30 601L0 601Z" fill="#6c5f66"></path><path d="M0 447L30 440.3C60 433.7 120 420.3 180 419.7C240 419 300 431 360 437.2C420 443.3 480 443.7 540 440.2C600 436.7 660 429.3 720 418.8C780 408.3 840 394.7 870 387.8L900 381L900 601L870 601C840 601 780 601 720 601C660 601 600 601 540 601C480 601 420 601 360 601C300 601 240 601 180 601C120 601 60 601 30 601L0 601Z" fill="#574d56"></path><path d="M0 431L30 442.3C60 453.7 120 476.3 180 477.5C240 478.7 300 458.3 360 450.5C420 442.7 480 447.3 540 449.3C600 451.3 660 450.7 720 457.5C780 464.3 840 478.7 870 485.8L900 493L900 601L870 601C840 601 780 601 720 601C660 601 600 601 540 601C480 601 420 601 360 601C300 601 240 601 180 601C120 601 60 601 30 601L0 601Z" fill="#433c46"></path><path d="M0 537L30 534.8C60 532.7 120 528.3 180 517.7C240 507 300 490 360 489.5C420 489 480 505 540 508.8C600 512.7 660 504.3 720 500.3C780 496.3 840 496.7 870 496.8L900 497L900 601L870 601C840 601 780 601 720 601C660 601 600 601 540 601C480 601 420 601 360 601C300 601 240 601 180 601C120 601 60 601 30 601L0 601Z" fill="#302c36"></path><path d="M0 529L30 532.2C60 535.3 120 541.7 180 543.2C240 544.7 300 541.3 360 543.7C420 546 480 554 540 553.2C600 552.3 660 542.7 720 535.2C780 527.7 840 522.3 870 519.7L900 517L900 601L870 601C840 601 780 601 720 601C660 601 600 601 540 601C480 601 420 601 360 601C300 601 240 601 180 601C120 601 60 601 30 601L0 601Z" fill="#1d1d27"></path></svg>